<?xml version="1.0" encoding="UTF-8" standalone="no"?>
<!-- Created with Inkscape (http://www.inkscape.org/) -->

<svg
   xmlns:dc="http://purl.org/dc/elements/1.1/"
   xmlns:cc="http://creativecommons.org/ns#"
   xmlns:rdf="http://www.w3.org/1999/02/22-rdf-syntax-ns#"
   xmlns:svg="http://www.w3.org/2000/svg"
   xmlns="http://www.w3.org/2000/svg"
   xmlns:sodipodi="http://sodipodi.sourceforge.net/DTD/sodipodi-0.dtd"
   xmlns:inkscape="http://www.inkscape.org/namespaces/inkscape"
   width="438654.31"
   height="3.5433071"
   id="svg2"
   version="1.1"
   inkscape:version="0.48.3.1 r9886"
   sodipodi:docname="proxima-cenrauri.svg">
  <defs
     id="defs4" />
  <sodipodi:namedview
     id="base"
     pagecolor="#ffffff"
     bordercolor="#666666"
     borderopacity="1.0"
     inkscape:pageopacity="0.0"
     inkscape:pageshadow="2"
     inkscape:zoom="44.8"
     inkscape:cx="8.9397322"
     inkscape:cy="1.7075893"
     inkscape:document-units="mm"
     inkscape:current-layer="layer1"
     showgrid="false"
     units="mm"
     inkscape:window-width="1309"
     inkscape:window-height="744"
     inkscape:window-x="57"
     inkscape:window-y="24"
     inkscape:window-maximized="1" />
  <metadata
     id="metadata7">
    <rdf:RDF>
      <cc:Work
         rdf:about="">
        <dc:format>image/svg+xml</dc:format>
        <dc:type
           rdf:resource="http://purl.org/dc/dcmitype/StillImage" />
        <dc:title></dc:title>
      </cc:Work>
    </rdf:RDF>
  </metadata>
  <g
     inkscape:label="Ebene 1"
     inkscape:groupmode="layer"
     id="layer1"
     transform="translate(0,-3153.5433)">
    <path
       sodipodi:type="arc"
       style="fill:#000080;fill-opacity:1;stroke:none"
       id="path2985"
       sodipodi:cx="78.571426"
       sodipodi:cy="160.93361"
       sodipodi:rx="30"
       sodipodi:ry="25.714285"
       d="m 108.57143,160.93361 c 0,14.20161 -13.431461,25.71428 -30.000004,25.71428 -16.568542,0 -30,-11.51267 -30,-25.71428 0,-14.20161 13.431458,-25.71429 30,-25.71429 16.568543,0 30.000004,11.51268 30.000004,25.71429 z"
       transform="matrix(0.05905512,0,0,0.06889764,-2.8683914,3144.227)" />
    <path
       sodipodi:type="arc"
       style="fill:#d40000;fill-opacity:1;stroke:none"
       id="path2985-5"
       sodipodi:cx="78.571426"
       sodipodi:cy="160.93361"
       sodipodi:rx="30"
       sodipodi:ry="25.714285"
       d="m 108.57143,160.93361 c 0,14.20161 -13.431461,25.71428 -30.000004,25.71428 -16.568542,0 -30,-11.51267 -30,-25.71428 0,-14.20161 13.431458,-25.71429 30,-25.71429 16.568543,0 30.000004,11.51268 30.000004,25.71429 z"
       transform="matrix(0.05905512,0,0,0.06889764,4.2182228,3144.227)" />
    <path
       sodipodi:type="arc"
       style="fill:#ffff00;fill-opacity:1;stroke:none"
       id="path2985-5-7"
       sodipodi:cx="78.571426"
       sodipodi:cy="160.93361"
       sodipodi:rx="30"
       sodipodi:ry="25.714285"
       d="m 108.57143,160.93361 c 0,14.20161 -13.431461,25.71428 -30.000004,25.71428 -16.568542,0 -30,-11.51267 -30,-25.71428 0,-14.20161 13.431458,-25.71429 30,-25.71429 16.568543,0 30.000004,11.51268 30.000004,25.71429 z"
       transform="matrix(0.05905512,0,0,0.06889764,438647.92,3144.227)" />
  </g>
</svg>
